<svg width="20" height="20" viewBox="0 0 20 20" fill="none" xmlns="http://www.w3.org/2000/svg">
<path d="M9.99975 7.50019V10.8335M9.99975 14.1669H10.0081M8.84585 3.24329L1.99178 15.0821C1.61161 15.7388 1.42153 16.0671 1.44962 16.3366C1.47412 16.5716 1.59727 16.7852 1.7884 16.9242C2.00753 17.0835 2.38691 17.0835 3.14568 17.0835H16.8538C17.6126 17.0835 17.992 17.0835 18.2111 16.9242C18.4022 16.7852 18.5254 16.5716 18.5499 16.3366C18.578 16.0671 18.3879 15.7388 18.0077 15.0821L11.1537 3.24329C10.7748 2.58899 10.5854 2.26184 10.3383 2.15196C10.1228 2.05612 9.87672 2.05612 9.66117 2.15196C9.41406 2.26184 9.22466 2.58899 8.84585 3.24329Z" stroke="black" stroke-width="2" stroke-linecap="round" stroke-linejoin="round"/>
</svg>
