<svg width="20" height="20" viewBox="0 0 20 20" fill="none" xmlns="http://www.w3.org/2000/svg">
<path d="M3.33342 11.6668L4.64562 16.9156C4.68252 17.0633 4.70098 17.1371 4.72281 17.2015C4.93605 17.8311 5.50301 18.2738 6.16552 18.328C6.23333 18.3335 6.30941 18.3335 6.46157 18.3335C6.65211 18.3335 6.74739 18.3335 6.82764 18.3257C7.62091 18.2488 8.24869 17.621 8.32563 16.8277C8.33342 16.7475 8.33342 16.6522 8.33342 16.4617V4.5835M15.4167 11.2502C17.0276 11.2502 18.3334 9.94433 18.3334 8.3335C18.3334 6.72267 17.0276 5.41684 15.4167 5.41684M8.54175 4.5835H5.41675C3.34568 4.5835 1.66675 6.26244 1.66675 8.33351C1.66675 10.4046 3.34568 12.0835 5.41675 12.0835H8.54175C10.0138 12.0835 11.8145 12.8726 13.2037 13.6299C14.0141 14.0717 14.4193 14.2926 14.6847 14.2601C14.9308 14.2299 15.1169 14.1194 15.2612 13.9178C15.4167 13.7003 15.4167 13.2652 15.4167 12.3949V4.27207C15.4167 3.40183 15.4167 2.96671 15.2612 2.74924C15.1169 2.54759 14.9308 2.43709 14.6847 2.40694C14.4193 2.37444 14.0141 2.59534 13.2037 3.03713C11.8145 3.79443 10.0138 4.5835 8.54175 4.5835Z" stroke="black" stroke-width="2" stroke-linecap="round" stroke-linejoin="round"/>
</svg>
