<svg width="20" height="20" viewBox="0 0 20 20" fill="none" xmlns="http://www.w3.org/2000/svg">
<path d="M16.6666 5.6665C16.6666 4.26637 16.6666 3.56631 16.3941 3.03153C16.1544 2.56112 15.772 2.17867 15.3016 1.93899C14.7668 1.6665 14.0667 1.6665 12.6666 1.6665H7.33325C5.93312 1.6665 5.23305 1.6665 4.69828 1.93899C4.22787 2.17867 3.84542 2.56112 3.60574 3.03153C3.33325 3.56631 3.33325 4.26637 3.33325 5.6665V14.3332C3.33325 15.7333 3.33325 16.4334 3.60574 16.9681C3.84542 17.4386 4.22787 17.821 4.69828 18.0607C5.23305 18.3332 5.26645 18.3332 6.66659 18.3332M11.6666 9.1665H6.66659M8.33325 12.4998H6.66659M13.3333 5.83317H6.66659M11.751 16.7614L9.16659 17.4998L9.905 14.9153C9.94036 14.7916 9.95804 14.7297 9.98454 14.672C10.0081 14.6207 10.0367 14.572 10.0701 14.5265C10.1077 14.4754 10.1532 14.4298 10.2442 14.3388L15.6249 8.95813C16.2002 8.38283 17.133 8.38283 17.7083 8.95811C18.2836 9.53342 18.2836 10.4662 17.7083 11.0415L12.3276 16.4222C12.2365 16.5132 12.191 16.5587 12.1398 16.5963C12.0944 16.6296 12.0457 16.6583 11.9944 16.6818C11.9367 16.7083 11.8748 16.726 11.751 16.7614Z" stroke="black" stroke-width="2" stroke-linecap="round" stroke-linejoin="round"/>
</svg>
