<svg width="20" height="20" viewBox="0 0 20 20" fill="none" xmlns="http://www.w3.org/2000/svg">
<path d="M9.99992 5.00016C10.4602 5.00016 10.8333 4.62707 10.8333 4.16683C10.8333 3.70659 10.4602 3.3335 9.99992 3.3335C9.53968 3.3335 9.16659 3.70659 9.16659 4.16683C9.16659 4.62707 9.53968 5.00016 9.99992 5.00016Z" stroke="black" stroke-width="2" stroke-linecap="round" stroke-linejoin="round"/>
<path d="M9.99992 10.8335C10.4602 10.8335 10.8333 10.4604 10.8333 10.0002C10.8333 9.53993 10.4602 9.16683 9.99992 9.16683C9.53968 9.16683 9.16659 9.53993 9.16659 10.0002C9.16659 10.4604 9.53968 10.8335 9.99992 10.8335Z" stroke="black" stroke-width="2" stroke-linecap="round" stroke-linejoin="round"/>
<path d="M9.99992 16.6668C10.4602 16.6668 10.8333 16.2937 10.8333 15.8335C10.8333 15.3733 10.4602 15.0002 9.99992 15.0002C9.53968 15.0002 9.16659 15.3733 9.16659 15.8335C9.16659 16.2937 9.53968 16.6668 9.99992 16.6668Z" stroke="black" stroke-width="2" stroke-linecap="round" stroke-linejoin="round"/>
<path d="M15.8333 5.00016C16.2935 5.00016 16.6666 4.62707 16.6666 4.16683C16.6666 3.70659 16.2935 3.3335 15.8333 3.3335C15.373 3.3335 14.9999 3.70659 14.9999 4.16683C14.9999 4.62707 15.373 5.00016 15.8333 5.00016Z" stroke="black" stroke-width="2" stroke-linecap="round" stroke-linejoin="round"/>
<path d="M15.8333 10.8335C16.2935 10.8335 16.6666 10.4604 16.6666 10.0002C16.6666 9.53993 16.2935 9.16683 15.8333 9.16683C15.373 9.16683 14.9999 9.53993 14.9999 10.0002C14.9999 10.4604 15.373 10.8335 15.8333 10.8335Z" stroke="black" stroke-width="2" stroke-linecap="round" stroke-linejoin="round"/>
<path d="M15.8333 16.6668C16.2935 16.6668 16.6666 16.2937 16.6666 15.8335C16.6666 15.3733 16.2935 15.0002 15.8333 15.0002C15.373 15.0002 14.9999 15.3733 14.9999 15.8335C14.9999 16.2937 15.373 16.6668 15.8333 16.6668Z" stroke="black" stroke-width="2" stroke-linecap="round" stroke-linejoin="round"/>
<path d="M4.16659 5.00016C4.62682 5.00016 4.99992 4.62707 4.99992 4.16683C4.99992 3.70659 4.62682 3.3335 4.16659 3.3335C3.70635 3.3335 3.33325 3.70659 3.33325 4.16683C3.33325 4.62707 3.70635 5.00016 4.16659 5.00016Z" stroke="black" stroke-width="2" stroke-linecap="round" stroke-linejoin="round"/>
<path d="M4.16659 10.8335C4.62682 10.8335 4.99992 10.4604 4.99992 10.0002C4.99992 9.53993 4.62682 9.16683 4.16659 9.16683C3.70635 9.16683 3.33325 9.53993 3.33325 10.0002C3.33325 10.4604 3.70635 10.8335 4.16659 10.8335Z" stroke="black" stroke-width="2" stroke-linecap="round" stroke-linejoin="round"/>
<path d="M4.16659 16.6668C4.62682 16.6668 4.99992 16.2937 4.99992 15.8335C4.99992 15.3733 4.62682 15.0002 4.16659 15.0002C3.70635 15.0002 3.33325 15.3733 3.33325 15.8335C3.33325 16.2937 3.70635 16.6668 4.16659 16.6668Z" stroke="black" stroke-width="2" stroke-linecap="round" stroke-linejoin="round"/>
</svg>
