<svg width="20" height="20" viewBox="0 0 20 20" fill="none" xmlns="http://www.w3.org/2000/svg">
<path d="M9.99992 10.8332C10.4602 10.8332 10.8333 10.4601 10.8333 9.99984C10.8333 9.5396 10.4602 9.1665 9.99992 9.1665C9.53968 9.1665 9.16659 9.5396 9.16659 9.99984C9.16659 10.4601 9.53968 10.8332 9.99992 10.8332Z" stroke="black" stroke-width="2" stroke-linecap="round" stroke-linejoin="round"/>
<path d="M15.8333 10.8332C16.2935 10.8332 16.6666 10.4601 16.6666 9.99984C16.6666 9.5396 16.2935 9.1665 15.8333 9.1665C15.373 9.1665 14.9999 9.5396 14.9999 9.99984C14.9999 10.4601 15.373 10.8332 15.8333 10.8332Z" stroke="black" stroke-width="2" stroke-linecap="round" stroke-linejoin="round"/>
<path d="M4.16659 10.8332C4.62682 10.8332 4.99992 10.4601 4.99992 9.99984C4.99992 9.5396 4.62682 9.1665 4.16659 9.1665C3.70635 9.1665 3.33325 9.5396 3.33325 9.99984C3.33325 10.4601 3.70635 10.8332 4.16659 10.8332Z" stroke="black" stroke-width="2" stroke-linecap="round" stroke-linejoin="round"/>
</svg>
