<svg width="20" height="20" viewBox="0 0 20 20" fill="none" xmlns="http://www.w3.org/2000/svg">
<path d="M16.6667 8.74984V5.6665C16.6667 4.26637 16.6667 3.56631 16.3942 3.03153C16.1545 2.56112 15.7721 2.17867 15.3017 1.93899C14.7669 1.6665 14.0668 1.6665 12.6667 1.6665H7.33337C5.93324 1.6665 5.23318 1.6665 4.6984 1.93899C4.22799 2.17867 3.84554 2.56112 3.60586 3.03153C3.33337 3.56631 3.33337 4.26637 3.33337 5.6665V14.3332C3.33337 15.7333 3.33337 16.4334 3.60586 16.9681C3.84554 17.4386 4.22799 17.821 4.6984 18.0607C5.23318 18.3332 5.93324 18.3332 7.33337 18.3332H9.58337M18.3334 18.3332L17.0834 17.0832M17.9167 14.9998C17.9167 16.6107 16.6109 17.9165 15 17.9165C13.3892 17.9165 12.0834 16.6107 12.0834 14.9998C12.0834 13.389 13.3892 12.0832 15 12.0832C16.6109 12.0832 17.9167 13.389 17.9167 14.9998Z" stroke="black" stroke-width="2" stroke-linecap="round" stroke-linejoin="round"/>
</svg>
