<svg width="20" height="20" viewBox="0 0 20 20" fill="none" xmlns="http://www.w3.org/2000/svg">
<path d="M10.4167 2.49984H6.5C5.09987 2.49984 4.3998 2.49984 3.86502 2.77232C3.39462 3.012 3.01217 3.39446 2.77248 3.86486C2.5 4.39964 2.5 5.09971 2.5 6.49984V13.4998C2.5 14.9 2.5 15.6 2.77248 16.1348C3.01217 16.6052 3.39462 16.9877 3.86502 17.2274C4.3998 17.4998 5.09987 17.4998 6.5 17.4998H14.1667C14.9416 17.4998 15.3291 17.4998 15.647 17.4147C16.5098 17.1835 17.1836 16.5096 17.4148 15.6469C17.5 15.329 17.5 14.9415 17.5 14.1665M15.8333 6.6665V1.6665M13.3333 4.1665H18.3333M8.75 7.08317C8.75 8.00365 8.00381 8.74984 7.08333 8.74984C6.16286 8.74984 5.41667 8.00365 5.41667 7.08317C5.41667 6.1627 6.16286 5.4165 7.08333 5.4165C8.00381 5.4165 8.75 6.1627 8.75 7.08317ZM12.4917 9.93163L5.44262 16.3399C5.04614 16.7003 4.84789 16.8805 4.83036 17.0367C4.81516 17.172 4.86704 17.3062 4.96932 17.3961C5.08732 17.4998 5.35523 17.4998 5.89107 17.4998H13.7133C14.9126 17.4998 15.5123 17.4998 15.9833 17.2984C16.5745 17.0454 17.0456 16.5744 17.2985 15.9831C17.5 15.5121 17.5 14.9125 17.5 13.7132C17.5 13.3096 17.5 13.1079 17.4559 12.92C17.4005 12.6838 17.2941 12.4626 17.1444 12.2718C17.0252 12.12 16.8677 11.994 16.5526 11.7419L14.2215 9.87705C13.9062 9.62476 13.7485 9.49861 13.5748 9.4541C13.4218 9.41486 13.2607 9.41994 13.1104 9.46875C12.94 9.52412 12.7905 9.65996 12.4917 9.93163Z" stroke="black" stroke-width="2" stroke-linecap="round" stroke-linejoin="round"/>
</svg>
