<svg width="20" height="20" viewBox="0 0 20 20" fill="none" xmlns="http://www.w3.org/2000/svg">
<g clip-path="url(#clip0_7_1313)">
<path d="M3.33343 18.181C3.83558 18.3332 4.51382 18.3332 5.66675 18.3332H14.3334C15.4863 18.3332 16.1646 18.3332 16.6667 18.181M3.33343 18.181C3.22577 18.1484 3.12619 18.1088 3.03177 18.0607C2.56137 17.821 2.17892 17.4386 1.93923 16.9681C1.66675 16.4334 1.66675 15.7333 1.66675 14.3332V5.6665C1.66675 4.26637 1.66675 3.56631 1.93923 3.03153C2.17892 2.56112 2.56137 2.17867 3.03177 1.93899C3.56655 1.6665 4.26662 1.6665 5.66675 1.6665H14.3334C15.7335 1.6665 16.4336 1.6665 16.9684 1.93899C17.4388 2.17867 17.8212 2.56112 18.0609 3.03153C18.3334 3.56631 18.3334 4.26637 18.3334 5.6665V14.3332C18.3334 15.7333 18.3334 16.4334 18.0609 16.9681C17.8212 17.4386 17.4388 17.821 16.9684 18.0607C16.874 18.1088 16.7744 18.1484 16.6667 18.181M3.33343 18.181C3.33371 17.5066 3.33775 17.1497 3.39746 16.8495C3.66049 15.5272 4.69415 14.4936 6.01645 14.2306C6.33844 14.1665 6.72566 14.1665 7.50008 14.1665H12.5001C13.2745 14.1665 13.6617 14.1665 13.9837 14.2306C15.306 14.4936 16.3397 15.5272 16.6027 16.8495C16.6624 17.1497 16.6665 17.5066 16.6667 18.181M13.3334 7.9165C13.3334 9.75745 11.841 11.2498 10.0001 11.2498C8.15913 11.2498 6.66675 9.75745 6.66675 7.9165C6.66675 6.07555 8.15913 4.58317 10.0001 4.58317C11.841 4.58317 13.3334 6.07555 13.3334 7.9165Z" stroke="black" stroke-width="2" stroke-linecap="round" stroke-linejoin="round"/>
</g>
<defs>
<clipPath id="clip0_7_1313">
<rect width="20" height="20" fill="white"/>
</clipPath>
</defs>
</svg>
