<svg width="20" height="20" viewBox="0 0 20 20" fill="none" xmlns="http://www.w3.org/2000/svg">
<path fill-rule="evenodd" clip-rule="evenodd" d="M2.83832 2.83838C1.66675 4.00995 1.66675 5.89557 1.66675 9.66681V10.3335C1.66675 14.1047 1.66675 15.9903 2.83832 17.1619C4.00989 18.3335 5.89551 18.3335 9.66675 18.3335H10.3334C14.1047 18.3335 15.9903 18.3335 17.1618 17.1619C18.3334 15.9903 18.3334 14.1047 18.3334 10.3335V9.66681C18.3334 6.99489 18.3334 5.2695 17.9167 4.07396V14.1668C17.1164 14.1668 16.3488 13.8489 15.7829 13.2829L15.1565 12.6565C14.7764 12.2765 14.5864 12.0864 14.393 11.9656C13.7446 11.5607 12.9222 11.5607 12.2739 11.9656C12.0804 12.0864 11.8904 12.2765 11.5104 12.6565L11.4161 12.7508C11.0857 13.0812 10.9205 13.2464 10.7618 13.3208C10.3694 13.5047 9.90312 13.4149 9.60707 13.0984C9.48731 12.9703 9.39529 12.7556 9.21125 12.3262L9.16675 12.2224C8.71899 11.1776 8.49511 10.6552 8.18018 10.3652C7.62253 9.85176 6.82251 9.69769 6.11405 9.96733C5.71395 10.1196 5.31208 10.5215 4.50832 11.3252L2.91675 12.9168V2.7627C2.89025 2.78736 2.86411 2.81259 2.83832 2.83838Z" fill="#222222"/>
<path d="M2.66675 9.66651C2.66675 7.75262 2.66887 6.4178 2.80428 5.41067C2.93582 4.4323 3.17641 3.9142 3.54543 3.54518C3.91445 3.17617 4.43254 2.93557 5.41091 2.80403C6.41804 2.66863 7.75286 2.6665 9.66675 2.6665H10.3334C12.2473 2.6665 13.5821 2.66863 14.5893 2.80403C15.5676 2.93557 16.0857 3.17617 16.4547 3.54518C16.8238 3.9142 17.0643 4.4323 17.1959 5.41066C17.3313 6.4178 17.3334 7.75262 17.3334 9.6665V10.3332C17.3334 12.2471 17.3313 13.5819 17.1959 14.589C17.0643 15.5674 16.8238 16.0855 16.4547 16.4545C16.0857 16.8235 15.5676 17.0641 14.5893 17.1956C13.5821 17.331 12.2473 17.3332 10.3334 17.3332H9.66675C7.75286 17.3332 6.41804 17.331 5.41091 17.1956C4.43254 17.0641 3.91445 16.8235 3.54543 16.4545C3.17641 16.0855 2.93582 15.5674 2.80428 14.589C2.66887 13.5819 2.66675 12.2471 2.66675 10.3332V9.66651Z" stroke="#222222" stroke-width="2"/>
<circle cx="12.4999" cy="7.50016" r="1.66667" fill="#222222"/>
</svg>
