<svg width="20" height="20" viewBox="0 0 20 20" fill="none" xmlns="http://www.w3.org/2000/svg">
<path d="M8.33325 13.3332H11.6666M7.33325 18.3332H12.6666C14.0667 18.3332 14.7668 18.3332 15.3016 18.0607C15.772 17.821 16.1544 17.4386 16.3941 16.9681C16.6666 16.4334 16.6666 15.7333 16.6666 14.3332V5.6665C16.6666 4.26637 16.6666 3.56631 16.3941 3.03153C16.1544 2.56112 15.772 2.17867 15.3016 1.93899C14.7668 1.6665 14.0667 1.6665 12.6666 1.6665H7.33325C5.93312 1.6665 5.23306 1.6665 4.69828 1.93899C4.22787 2.17867 3.84542 2.56112 3.60574 3.03153C3.33325 3.56631 3.33325 4.26637 3.33325 5.6665V14.3332C3.33325 15.7333 3.33325 16.4334 3.60574 16.9681C3.84542 17.4386 4.22787 17.821 4.69828 18.0607C5.23306 18.3332 5.93312 18.3332 7.33325 18.3332ZM12.4999 7.49984C12.4999 8.88055 11.3806 9.99984 9.99992 9.99984C8.61921 9.99984 7.49992 8.88055 7.49992 7.49984C7.49992 6.11913 8.61921 4.99984 9.99992 4.99984C11.3806 4.99984 12.4999 6.11913 12.4999 7.49984Z" stroke="black" stroke-width="2" stroke-linecap="round" stroke-linejoin="round"/>
</svg>
