<svg width="20" height="20" viewBox="0 0 20 20" fill="none" xmlns="http://www.w3.org/2000/svg">
<path d="M5.83341 10.0001L1.66675 12.0835L9.70194 16.1011C9.81126 16.1557 9.86592 16.1831 9.92325 16.1938C9.97403 16.2033 10.0261 16.2033 10.0769 16.1938C10.1342 16.1831 10.1889 16.1557 10.2982 16.1011L18.3334 12.0835L14.1667 10.0001M1.66675 7.9168L9.70194 3.89921C9.81126 3.84455 9.86592 3.81722 9.92325 3.80646C9.97403 3.79693 10.0261 3.79693 10.0769 3.80646C10.1342 3.81722 10.1889 3.84455 10.2982 3.89921L18.3334 7.9168L10.2982 11.9344C10.1889 11.9891 10.1342 12.0164 10.0769 12.0271C10.0261 12.0367 9.97403 12.0367 9.92325 12.0271C9.86592 12.0164 9.81126 11.9891 9.70194 11.9344L1.66675 7.9168Z" stroke="black" stroke-width="2" stroke-linecap="round" stroke-linejoin="round"/>
</svg>
