<svg width="20" height="20" viewBox="0 0 20 20" fill="none" xmlns="http://www.w3.org/2000/svg">
<path d="M10.8333 5.83333C10.8333 5.05836 10.8333 4.67087 10.7481 4.35295C10.517 3.49022 9.84311 2.81635 8.98038 2.58519C8.66246 2.5 8.27498 2.5 7.5 2.5L6.5 2.5C5.09987 2.5 4.3998 2.5 3.86502 2.77248C3.39462 3.01217 3.01217 3.39462 2.77248 3.86502C2.5 4.3998 2.5 5.09987 2.5 6.5L2.5 13.5C2.5 14.9001 2.5 15.6002 2.77248 16.135C3.01217 16.6054 3.39462 16.9878 3.86502 17.2275C4.3998 17.5 5.09987 17.5 6.5 17.5L7.5 17.5C8.27498 17.5 8.66246 17.5 8.98038 17.4148C9.84311 17.1836 10.517 16.5098 10.7481 15.647C10.8333 15.3291 10.8333 14.9416 10.8333 14.1667M14.1667 13.3333L17.5 10M17.5 10L14.1667 6.66667M17.5 10L7.5 10" stroke="black" stroke-width="2" stroke-linecap="round" stroke-linejoin="round"/>
</svg>
