<svg width="20" height="20" viewBox="0 0 20 20" fill="none" xmlns="http://www.w3.org/2000/svg">
<path d="M9.16667 3.33333H6.5C5.09987 3.33333 4.3998 3.33333 3.86502 3.60582C3.39462 3.8455 3.01217 4.22795 2.77248 4.69836C2.5 5.23314 2.5 5.9332 2.5 7.33333V11.6667C2.5 12.4416 2.5 12.8291 2.58519 13.147C2.81635 14.0098 3.49022 14.6836 4.35295 14.9148C4.67087 15 5.05836 15 5.83333 15V16.9463C5.83333 17.3903 5.83333 17.6123 5.92436 17.7263C6.00352 17.8255 6.12356 17.8832 6.25045 17.8831C6.39636 17.8829 6.56973 17.7442 6.91646 17.4668L8.90434 15.8765C9.31043 15.5517 9.51347 15.3892 9.73957 15.2737C9.94017 15.1712 10.1537 15.0963 10.3743 15.051C10.6231 15 10.8831 15 11.4031 15H12.6667C14.0668 15 14.7669 15 15.3016 14.7275C15.772 14.4878 16.1545 14.1054 16.3942 13.635C16.6667 13.1002 16.6667 12.4001 16.6667 11V10.8333M16.7678 3.23223C17.7441 4.20854 17.7441 5.79146 16.7678 6.76777C15.7915 7.74408 14.2085 7.74408 13.2322 6.76777C12.2559 5.79146 12.2559 4.20854 13.2322 3.23223C14.2085 2.25592 15.7915 2.25592 16.7678 3.23223Z" stroke="black" stroke-width="2" stroke-linecap="round" stroke-linejoin="round"/>
</svg>
