<svg width="20" height="20" viewBox="0 0 20 20" fill="none" xmlns="http://www.w3.org/2000/svg">
<path d="M12.9167 2.7423C14.1383 3.23679 15 4.43443 15 5.83333C15 7.23224 14.1383 8.42988 12.9167 8.92437M10.0001 12.5H6.66675C5.11361 12.5 4.33704 12.5 3.72447 12.7537C2.90771 13.092 2.2588 13.741 1.92048 14.5577C1.66675 15.1703 1.66675 15.9469 1.66675 17.5M16.6667 15C16.6667 15.9205 15.9206 16.6667 15.0001 16.6667M16.6667 15C16.6667 14.0795 15.9206 13.3333 15.0001 13.3333M16.6667 15H17.5001M15.0001 16.6667C14.0796 16.6667 13.3334 15.9205 13.3334 15M15.0001 16.6667V17.5M13.3334 15C13.3334 14.0795 14.0796 13.3333 15.0001 13.3333M13.3334 15H12.5001M15.0001 13.3333V12.5M16.1786 16.1785C15.5277 16.8294 14.4724 16.8294 13.8216 16.1785M16.1786 16.1785C16.8295 15.5276 16.8295 14.4723 16.1786 13.8215M16.1786 16.1785L16.7678 16.7677M13.8216 16.1785C13.1707 15.5276 13.1707 14.4723 13.8216 13.8215M13.8216 16.1785L13.2323 16.7677M13.8216 13.8215C14.4724 13.1706 15.5277 13.1706 16.1786 13.8215M13.8216 13.8215L13.2323 13.2322M16.1786 13.8215L16.7678 13.2322M11.25 5.83333C11.25 7.67428 9.75766 9.16667 7.91671 9.16667C6.07576 9.16667 4.58338 7.67428 4.58338 5.83333C4.58338 3.99238 6.07576 2.5 7.91671 2.5C9.75766 2.5 11.25 3.99238 11.25 5.83333Z" stroke="black" stroke-width="2" stroke-linecap="round" stroke-linejoin="round"/>
</svg>
