<svg width="20" height="20" viewBox="0 0 20 20" fill="none" xmlns="http://www.w3.org/2000/svg">
<path d="M13.3329 6.66667C13.3329 7.55072 12.9817 8.39857 12.3566 9.02369C11.7315 9.64881 10.8836 10 9.99958 10C9.11552 10 8.26767 9.64881 7.64255 9.02369C7.01743 8.39857 6.66624 7.55072 6.66624 6.66667M3.02726 6.16782L2.44392 13.1678C2.31861 14.6716 2.25595 15.4235 2.51015 16.0035C2.73348 16.5131 3.12043 16.9336 3.60973 17.1985C4.16664 17.5 4.92113 17.5 6.43011 17.5H13.569C15.078 17.5 15.8325 17.5 16.3894 17.1985C16.8787 16.9336 17.2657 16.5131 17.489 16.0035C17.7432 15.4235 17.6805 14.6716 17.5552 13.1678L16.9719 6.16782C16.8641 4.87396 16.8102 4.22703 16.5236 3.73738C16.2713 3.3062 15.8956 2.9605 15.445 2.74487C14.9332 2.5 14.2841 2.5 12.9857 2.5L7.01344 2.5C5.7151 2.5 5.06592 2.5 4.55417 2.74487C4.10353 2.9605 3.72782 3.3062 3.47551 3.73738C3.18899 4.22703 3.13508 4.87396 3.02726 6.16782Z" stroke="black" stroke-width="2" stroke-linecap="round" stroke-linejoin="round"/>
</svg>
